<?xml version="1.0" encoding="UTF-8"?>
<svg version="1.1" xmlns="http://www.w3.org/2000/svg" width="1024" height="1024">
<path d="M0 0 C337.92 0 675.84 0 1024 0 C1024 337.92 1024 675.84 1024 1024 C686.08 1024 348.16 1024 0 1024 C0 686.08 0 348.16 0 0 Z " fill="#00263F" transform="translate(0,0)"/>
<path d="M0 0 C1.02158203 0.00322266 2.04316406 0.00644531 3.09570312 0.00976562 C4.15080078 0.01814453 5.20589844 0.02652344 6.29296875 0.03515625 C7.36740234 0.03966797 8.44183594 0.04417969 9.54882812 0.04882812 C12.19276558 0.06057896 14.83658827 0.07700838 17.48046875 0.09765625 C17.55083663 9.21840848 17.6037106 18.33906339 17.63590527 27.46003056 C17.65137852 31.69798113 17.67226822 35.93574235 17.70678711 40.17358398 C18.14442268 95.37863007 7.16002132 142.16601554 -32.08203125 182.91015625 C-43.48744184 193.87794917 -56.81295549 203.17963487 -70.01953125 211.84765625 C-70.66559326 212.29036865 -71.31165527 212.73308105 -71.97729492 213.18920898 C-75.25945761 215.28681897 -77.01700788 216.09652825 -81 216.10546875 C-85.11629636 214.92677345 -88.6017787 213.29378155 -92.33203125 211.22265625 C-92.99912109 210.87074219 -93.66621094 210.51882813 -94.35351562 210.15625 C-97.60759661 208.38965508 -99.4331623 207.22720967 -101.51953125 204.09765625 C-100.61074219 203.63617187 -99.70195312 203.1746875 -98.765625 202.69921875 C-60.97375945 183.21159771 -26.71788269 153.31590575 -13.03491211 112.04907227 C-7.26023437 93.55352549 -4.59588526 73.7203645 -4.203125 54.37109375 C-4.17195335 53.06055527 -4.17195335 53.06055527 -4.14015198 51.72354126 C-4.07554499 48.9733146 -4.01619152 46.2230049 -3.95703125 43.47265625 C-3.91376119 41.59113776 -3.87014443 39.70962721 -3.82617188 37.828125 C-3.71995689 33.25138393 -3.61844836 28.67456063 -3.51953125 24.09765625 C-26.3033355 28.22164595 -44.27711273 39.06533407 -57.73828125 58.26171875 C-62.21200919 65.25609191 -65.5591764 72.36253551 -68.51953125 80.09765625 C-81.30138181 113.11804311 -81.30138181 113.11804311 -91.51953125 127.09765625 C-91.84953125 127.09765625 -92.17953125 127.09765625 -92.51953125 127.09765625 C-92.52499969 126.10739189 -92.52499969 126.10739189 -92.53057861 125.09712219 C-92.57268718 118.1688125 -92.64222809 111.2411479 -92.72705078 104.31323242 C-92.75511706 101.73452231 -92.7764022 99.15572846 -92.79052734 96.5769043 C-92.81215582 92.85031705 -92.85890925 89.1247216 -92.91015625 85.3984375 C-92.91138489 84.26247635 -92.91261353 83.1265152 -92.91387939 81.95613098 C-93.12228967 70.32831726 -95.77586322 60.48629193 -102.93359375 51.21875 C-104.51953125 49.09765625 -104.51953125 49.09765625 -105.48046875 46.9453125 C-106.80585971 44.58850827 -108.09287493 44.20192121 -110.51953125 43.09765625 C-111.6708095 42.06368834 -112.79412862 40.99811089 -113.89453125 39.91015625 C-121.19756897 33.4065234 -130.03106013 29.7968004 -139.27270508 26.99291992 C-140.44271561 26.63679123 -141.61272614 26.28066254 -142.81819153 25.91374207 C-143.70963364 25.64443375 -144.60107574 25.37512543 -145.51953125 25.09765625 C-145.45746197 33.30598557 -145.37977587 41.51397443 -145.28381634 49.72197056 C-145.2396811 53.53605987 -145.2003129 57.35005611 -145.1730957 61.16430664 C-144.89242921 99.2897041 -141.78989899 136.77083454 -114.51953125 166.09765625 C-111.38310076 167.5191004 -111.38310076 167.5191004 -107.95703125 165.5 C-106.46938336 164.69384349 -104.99077562 163.87087423 -103.51953125 163.03515625 C-102.72571045 162.58688477 -101.93188965 162.13861328 -101.11401367 161.67675781 C-85.72779368 152.7604471 -72.02722881 141.6961472 -59.51953125 129.09765625 C-58.98779297 128.56317871 -58.45605469 128.02870117 -57.90820312 127.47802734 C-50.04850513 119.48307172 -43.30493913 110.7994073 -36.77124023 101.70068359 C-35.46475302 100.02750336 -34.04893451 98.56732805 -32.51953125 97.09765625 C-40.68044366 133.78290061 -67.73049176 166.47899698 -98.77246094 186.5546875 C-101.06894688 188.01198038 -103.38145526 189.43731015 -105.70703125 190.84765625 C-106.78561401 191.5123291 -106.78561401 191.5123291 -107.88598633 192.19042969 C-112.9334995 195.15298294 -112.9334995 195.15298294 -115.51074219 194.90966797 C-117.96674051 193.91688109 -119.35452188 192.66663837 -121.2421875 190.80859375 C-121.94013428 190.1223291 -122.63808105 189.43606445 -123.35717773 188.72900391 C-124.09137939 187.98440918 -124.82558105 187.23981445 -125.58203125 186.47265625 C-126.34136963 185.70356934 -127.10070801 184.93448242 -127.88305664 184.14208984 C-166.45276492 144.3649037 -167.91163494 95.43130468 -167.71514893 43.14837646 C-167.70415306 39.43929731 -167.70468552 35.73025374 -167.70528698 32.02116108 C-167.70501648 28.43970187 -167.69956044 24.85826668 -167.69228554 21.27681541 C-167.68910648 19.57228971 -167.68713325 17.86776131 -167.68639183 16.1632328 C-167.68423975 13.81230507 -167.67553081 11.46149779 -167.66479492 9.1105957 C-167.66524811 8.41012115 -167.66570129 7.70964661 -167.66616821 6.98794556 C-167.63404321 2.21216821 -167.63404321 2.21216821 -166.51953125 1.09765625 C-142.88256098 -0.80206934 -118.17025828 6.69124183 -99.984375 21.91796875 C-91.06440838 29.80598994 -84.16234723 38.28890243 -77.51953125 48.09765625 C-74.21366874 44.88394322 -71.24009895 41.59723869 -68.39453125 37.97265625 C-52.04167177 17.85023215 -27.17899008 -0.15183793 0 0 Z " fill="#FCD06D" transform="translate(275.51953125,400.90234375)"/>
<path d="M0 0 C7.74093396 5.71217618 12.46245907 13.78908593 14 23.25 C14.10225625 25.34824168 14.15539789 27.44915151 14.17358398 29.54980469 C14.18707382 30.80170593 14.20056366 32.05360718 14.21446228 33.34344482 C14.21952223 34.00762169 14.22458218 34.67179855 14.22979546 35.35610199 C14.24632328 37.45096778 14.26956693 39.54566259 14.29469299 41.64044189 C14.36513009 47.59419087 14.4253652 53.54801021 14.47680664 59.50195312 C14.50881111 63.1518051 14.55013913 66.80145905 14.59700203 70.45114899 C14.6128946 71.83363496 14.62527404 73.21616638 14.63390923 74.59871674 C14.68904014 83.30202121 15.23482132 90.95446396 18 99.25 C21.96 99.25 25.92 99.25 30 99.25 C30.33 100.9 30.66 102.55 31 104.25 C22.67912893 110.71195306 14.80619783 114.98652949 4.03125 114.53125 C-1.15643561 113.81295507 -4.69977674 111.22024415 -7.8984375 107.14453125 C-10.03807018 103.46466654 -11.00083814 99.36037319 -12 95.25 C-12.81791016 96.22839844 -12.81791016 96.22839844 -13.65234375 97.2265625 C-21.29795172 106.08762609 -29.36916712 113.00980218 -41.34521484 114.55200195 C-43.7181244 114.68553696 -46.06113001 114.71847193 -48.4375 114.6875 C-49.26934814 114.67847656 -50.10119629 114.66945313 -50.95825195 114.66015625 C-59.83660971 114.4099393 -65.88443178 112.52734103 -72.4375 106.375 C-78.98174854 99.26340733 -80.51477379 91.96985922 -80.3984375 82.51171875 C-79.32607722 73.73308316 -74.44493816 66.48321548 -67.625 61.04296875 C-53.48613237 51.3856172 -29.50903245 41.120385 -12 42.25 C-12.11505742 39.41595415 -12.24177725 36.58320381 -12.375 33.75 C-12.4059375 32.95851563 -12.436875 32.16703125 -12.46875 31.3515625 C-12.87139258 23.16449671 -14.27335707 16.07737312 -19 9.25 C-26.03211471 3.79652329 -32.33847665 3.54511647 -41 4.25 C-45.94223279 6.1033373 -47.50265043 8.80926394 -49.75 13.375 C-52.13785655 18.73971771 -52.78293741 23.16468704 -54 29.25 C-61.26 29.25 -68.52 29.25 -76 29.25 C-76 19.62586145 -74.65565568 13.71338555 -68.125 6.5625 C-50.69607906 -9.68528746 -20.33133829 -12.29961952 0 0 Z " fill="#FCF4EE" transform="translate(889,463.75)"/>
<path d="M0 0 C7.99181224 7.16348621 11.89873861 17.22175702 14.78515625 27.32421875 C14.78515625 33.26421875 14.78515625 39.20421875 14.78515625 45.32421875 C-10.29484375 45.32421875 -35.37484375 45.32421875 -61.21484375 45.32421875 C-58.75015071 64.70580692 -58.75015071 64.70580692 -48.21484375 80.32421875 C-39.78370579 86.62723989 -31.72406781 88.67587495 -21.33984375 88.63671875 C-20.49292969 88.65283203 -19.64601563 88.66894531 -18.7734375 88.68554688 C-11.14631561 88.69138694 -3.96849612 87.28380535 2.09765625 82.38671875 C2.74347656 81.86980469 3.38929688 81.35289062 4.0546875 80.8203125 C6.06852585 79.07922878 7.97906321 77.28081955 9.78515625 75.32421875 C12.78515625 76.82421875 12.78515625 76.82421875 15.78515625 78.32421875 C12.62315074 89.19960134 4.65235085 98.19804927 -4.96484375 103.9765625 C-19.14958855 111.53067789 -33.41289398 113.41695508 -49.01953125 109.35546875 C-63.97621981 104.52837122 -75.17638881 94.93363534 -82.42578125 80.99609375 C-90.77269995 62.04294 -90.1704698 41.01883209 -82.9296875 21.9375 C-79.55895073 14.60450442 -74.93615765 8.96466602 -69.21484375 3.32421875 C-68.65023438 2.74929688 -68.085625 2.174375 -67.50390625 1.58203125 C-49.18121125 -15.66811575 -19.40251699 -14.68021127 0 0 Z " fill="#FBF4ED" transform="translate(561.21484375,467.67578125)"/>
<path d="M0 0 C20.46 0 40.92 0 62 0 C62 2.31 62 4.62 62 7 C61.31292969 7.24234375 60.62585938 7.4846875 59.91796875 7.734375 C59.01691406 8.06953125 58.11585938 8.4046875 57.1875 8.75 C56.29417969 9.07484375 55.40085937 9.3996875 54.48046875 9.734375 C51.66015957 11.1733989 50.65195815 12.32811906 49 15 C47.68180733 23.95819473 53.0023511 33.7672851 56.1875 41.9375 C57.18427514 44.53464774 58.17660662 47.13346932 59.16894531 49.73231506 C59.893751 51.62945878 60.62003467 53.52603837 61.34765625 55.42210388 C64.57168613 63.83410632 67.72112338 72.27305953 70.85546875 80.71875 C71.35834147 82.0729666 71.86122537 83.42717904 72.36412048 84.78138733 C74.3696922 90.18327911 76.37409844 95.58560169 78.37631226 100.98873901 C79.33701326 103.58072691 80.29922049 106.17214595 81.26313782 108.76293945 C82.14957066 111.1454868 83.03384129 113.52883999 83.91569519 115.91308594 C84.30815933 116.9664917 84.70062347 118.01989746 85.10498047 119.10522461 C85.44834442 120.03048447 85.79170837 120.95574432 86.14547729 121.90904236 C86.82296126 123.95197961 86.82296126 123.95197961 88 125 C88.18775497 124.4882724 88.37550995 123.9765448 88.56895447 123.4493103 C91.02432773 116.75757663 93.48072397 110.06621878 95.9375 103.375 C96.53667236 101.74297134 96.53667236 101.74297134 97.14794922 100.07797241 C101.72271896 87.61891575 106.30490112 75.16266814 110.91015625 62.71484375 C111.29944809 61.66250549 111.68873993 60.61016724 112.08982849 59.52593994 C113.95538173 54.48399981 115.8224059 49.44260929 117.69116211 44.40185547 C118.3670416 42.57650364 119.04290511 40.75114589 119.71875 38.92578125 C120.0231752 38.10601303 120.3276004 37.28624481 120.64125061 36.44163513 C124.71276771 26.02403786 124.71276771 26.02403786 125 15 C122.13672802 10.18449713 116.05115659 8.81224702 111 7 C111 4.69 111 2.38 111 0 C127.17 0 143.34 0 160 0 C160 2.64 160 5.28 160 8 C158.80375 8.391875 157.6075 8.78375 156.375 9.1875 C147.59208346 12.58933387 144.73157915 17.65355221 140.90545654 25.94827271 C137.42440087 33.83620173 134.45388343 41.94957426 131.375 50 C130.54618796 52.15393264 129.71683114 54.30765572 128.88696289 56.46118164 C127.14502936 60.98470121 125.40671267 65.50958608 123.67138672 70.03564453 C121.00746714 76.983298 118.33461763 83.92749271 115.66015625 90.87109375 C112.33133229 99.5156602 109.00544638 108.16134605 105.68359375 116.80859375 C105.30614014 117.79080902 104.92868652 118.77302429 104.53979492 119.78500366 C102.43208681 125.27006897 100.32659607 130.75597662 98.22314453 136.24267578 C97.30632782 138.63184082 96.3894987 141.02100109 95.47265625 143.41015625 C95.04053329 144.53860458 94.60841034 145.66705292 94.16319275 146.82969666 C93.76395096 147.86953201 93.36470917 148.90936737 92.95336914 149.98071289 C92.59972794 150.90316299 92.24608673 151.8256131 91.88172913 152.77601624 C91 155 91 155 90 157 C83.4 157 76.8 157 70 157 C65.49880505 146.87231137 65.49880505 146.87231137 64.03979492 143.19091797 C63.70753906 142.35497604 63.3752832 141.51903412 63.03295898 140.65776062 C62.68563721 139.77812149 62.33831543 138.89848236 61.98046875 137.9921875 C61.60519043 137.0455574 61.22991211 136.09892731 60.84326172 135.12361145 C59.6224798 132.04160427 58.40481476 128.95837811 57.1875 125.875 C56.76715485 124.81221832 56.34680969 123.74943665 55.91372681 122.65444946 C50.2613275 108.36124889 44.68088865 94.04250657 39.1875 79.6875 C34.6342919 67.79732759 30.04578391 55.92246099 25.34243774 44.09072876 C24.75174595 42.60363085 24.16277885 41.11584639 23.57577515 39.62728882 C17.92180198 22.95235706 17.92180198 22.95235706 7 10 C5.05054994 9.13872542 5.05054994 9.13872542 3.1875 8.75 C2.135625 8.5025 1.08375 8.255 0 8 C0 5.36 0 2.72 0 0 Z " fill="#FBF4ED" transform="translate(333,418)"/>
<path d="M0 0 C18.81 0 37.62 0 57 0 C57 1.98 57 3.96 57 6 C56.28972656 6.27972656 55.57945312 6.55945313 54.84765625 6.84765625 C53.92855469 7.24855469 53.00945313 7.64945312 52.0625 8.0625 C51.14597656 8.44535156 50.22945312 8.82820313 49.28515625 9.22265625 C46.73836327 10.87270967 46.73836327 10.87270967 45.9375 14.0234375 C46.02346354 19.49286781 47.79825347 23.57799037 49.9375 28.5625 C50.37191406 29.61083008 50.80632813 30.65916016 51.25390625 31.73925781 C52.5227723 34.78921657 53.80763668 37.83160047 55.09881592 40.87213135 C56.79731743 44.88261955 58.47673944 48.90113158 60.16015625 52.91796875 C63.28913661 60.37747167 66.43096844 67.83144366 69.5894928 75.27848816 C71.09708384 78.83832469 72.57052993 82.40817895 74 86 C77.54595998 78.39799257 80.78505466 70.71829955 83.828125 62.90234375 C84.26259949 61.78743057 84.69707397 60.6725174 85.14471436 59.52381897 C86.05412989 57.1841883 86.96159676 54.84379932 87.8671875 52.50268555 C88.79060517 50.12191785 89.71966556 47.74333123 90.65429688 45.36694336 C92.01617976 41.90421764 93.36142107 38.43543039 94.703125 34.96484375 C95.11975403 33.91352768 95.53638306 32.86221161 95.96563721 31.77903748 C98.30461736 25.66179202 100.2800131 19.63259652 100 13 C97.55489669 9.0878347 94.34489343 8.18497093 90 7 C90 4.69 90 2.38 90 0 C102.54 0 115.08 0 128 0 C128 2.31 128 4.62 128 7 C126.824375 7.433125 125.64875 7.86625 124.4375 8.3125 C112.82176987 14.30199929 108.54898332 32.12888547 104 43.4375 C103.16264075 45.49559866 102.32408386 47.55321043 101.484375 49.61035156 C99.79021675 53.76252581 98.10051134 57.91646628 96.4140625 62.07177734 C92.99401897 70.48589257 89.50201597 78.8697449 86 87.25 C85.69432098 87.98197601 85.38864197 88.71395203 85.07369995 89.46810913 C83.60088002 92.99483724 82.12696663 96.52110467 80.65185547 100.046875 C79.57205949 102.62884822 78.49550617 105.21212961 77.42236328 107.796875 C56.95660979 157.06799479 56.95660979 157.06799479 38.79296875 165.2890625 C32.47824189 167.79294112 25.02317854 168.06371097 18.625 165.8125 C15.02612375 163.32756164 12.4655134 161.35367055 11.58203125 156.88671875 C11.33628055 152.93478181 11.64961804 149.77953269 13.875 146.4375 C17.74425692 143.4194796 19.93282658 143.45255817 24.6953125 143.69140625 C27 144 27 144 30 145 C35.13278865 145.49152293 39.56820514 145.64835994 44.3125 143.5 C51.23654628 137.05902672 56.0390812 128.99796726 59 120 C58.53173689 115.00442927 56.20210851 110.53148533 54.1953125 105.99609375 C53.80412231 105.10087006 53.41293213 104.20564636 53.0098877 103.28329468 C51.71949073 100.33267336 50.42231156 97.3850869 49.125 94.4375 C47.300257 90.27423649 45.47842732 86.10969946 43.65625 81.9453125 C43.18933746 80.87966568 42.72242493 79.81401886 42.24136353 78.71607971 C39.01377116 71.34273107 35.8235695 63.95410872 32.65625 56.5546875 C32.22996307 55.56036209 31.80367615 54.56603668 31.36447144 53.5415802 C28.01827355 45.73639589 28.01827355 45.73639589 26.43267822 42.01144409 C19.76543256 23.70468828 19.76543256 23.70468828 8 9 C5.3229741 8.05928809 2.80603601 7.52315926 0 7 C0 4.69 0 2.38 0 0 Z " fill="#FBF4EE" transform="translate(577,460)"/>
<path d="M0 0 C0.19916016 1.78857422 0.19916016 1.78857422 0.40234375 3.61328125 C0.58055983 5.17970678 0.75895456 6.74611198 0.9375 8.3125 C1.06801758 9.49102539 1.06801758 9.49102539 1.20117188 10.69335938 C1.33168945 11.8293457 1.33168945 11.8293457 1.46484375 12.98828125 C1.543396 13.68477783 1.62194824 14.38127441 1.70288086 15.09887695 C1.97996783 17.21648234 1.97996783 17.21648234 3 20 C3.53367187 19.28714844 4.06734375 18.57429688 4.6171875 17.83984375 C12.03038496 8.3104221 19.79316397 1.12954149 32 -1 C38.92222674 -1.84160811 44.21016243 -0.99873674 50 3 C52.89395959 5.53221464 52.97944824 6.72812962 53.2734375 10.6171875 C53.21052485 15.40288759 51.64651834 19.09932828 49.625 23.375 C49.14933594 24.44041016 49.14933594 24.44041016 48.6640625 25.52734375 C47.35323856 28.40569466 46.25347257 30.74652743 44 33 C43.5153125 32.38511719 43.030625 31.77023437 42.53125 31.13671875 C37.43001718 24.98580917 33.7248314 21.90392075 25.84765625 20.66015625 C19.39273454 20.19503887 14.30538785 22.44455683 9 26 C5.32242513 29.36620125 3.11963891 32.6572794 2.85955811 37.75007629 C2.8527301 38.86227036 2.8459021 39.97446442 2.83886719 41.12036133 C2.82925964 42.38209671 2.8196521 43.64383209 2.80975342 44.94380188 C2.80490497 46.32320983 2.80062626 47.70261988 2.796875 49.08203125 C2.79112051 50.4982656 2.78536281 51.91449993 2.77960205 53.33073425 C2.76909999 56.30065269 2.76325234 59.27054413 2.75976562 62.24047852 C2.7542868 66.0367954 2.73026892 69.83275256 2.70179367 73.62895679 C2.68312202 76.55528285 2.67795927 79.48152309 2.67642975 82.40790367 C2.67341218 83.80688122 2.66541395 85.20585757 2.65224457 86.60477638 C2.63509354 88.5669298 2.63892217 90.52923218 2.64355469 92.49145508 C2.63990906 93.60603592 2.63626343 94.72061676 2.63250732 95.86897278 C3.05888458 99.50169492 4.10056433 101.88809017 6 105 C10.08056469 107.59672298 14.36192368 108.79410016 19 110 C19 112.31 19 114.62 19 117 C0.52 117 -17.96 117 -37 117 C-37 114.69 -37 112.38 -37 110 C-36.38511719 109.79246094 -35.77023437 109.58492187 -35.13671875 109.37109375 C-34.32847656 109.06300781 -33.52023437 108.75492188 -32.6875 108.4375 C-31.48673828 108.00244141 -31.48673828 108.00244141 -30.26171875 107.55859375 C-27.10999652 105.38668154 -26.11846121 102.540571 -25 99 C-24.55982325 95.52773485 -24.55982325 95.52773485 -24.62768555 91.90649414 C-24.62403488 91.23557236 -24.62038422 90.56465057 -24.61662292 89.87339783 C-24.60858173 87.67705182 -24.62207429 85.48145884 -24.63671875 83.28515625 C-24.6372382 81.74490866 -24.63671723 80.20466039 -24.63520813 78.66441345 C-24.63529757 75.4442244 -24.64566776 72.22428716 -24.66381836 69.00415039 C-24.68648532 64.89431465 -24.68704997 60.78484689 -24.68030071 56.67496586 C-24.67694489 53.49634074 -24.68362139 50.31779817 -24.69342995 47.13918877 C-24.6972559 45.62466299 -24.69844107 44.11012799 -24.6968441 42.59559822 C-24.24341755 30.01436359 -24.24341755 30.01436359 -28.6875 18.625 C-31.64153785 16.54918962 -34.50438598 15.80668016 -38 15 C-38 12.69 -38 10.38 -38 8 C-33.23440523 6.6875969 -28.46559162 5.38791256 -23.69335938 4.09985352 C-22.0706685 3.65996939 -20.44890891 3.21663467 -18.828125 2.76977539 C-16.49716112 2.12776052 -14.16312094 1.49826247 -11.828125 0.87109375 C-11.10506165 0.66906845 -10.38199829 0.46704315 -9.63702393 0.25889587 C-3.40749284 -1.3915214 -3.40749284 -1.3915214 0 0 Z " fill="#FCF5EE" transform="translate(751,458)"/>
<path d="M0 0 C0.22396971 4.69532389 0.38644572 9.38748807 0.49438477 14.08691406 C0.53940618 15.68186638 0.60065077 17.27645215 0.67895508 18.87011719 C1.31052125 32.06283286 1.31052125 32.06283286 -1.88964844 36.79321289 C-4.17036908 38.8586782 -6.33955229 40.46299214 -9 42 C-9.74483643 42.43304443 -10.48967285 42.86608887 -11.25708008 43.31225586 C-17.64799356 46.70772793 -22.8785882 47.60086912 -30 47 C-35.28097404 45.20646165 -37.79895251 42.39000798 -41 38 C-42.94926781 32.15219658 -42.78007493 25.47788508 -40.9375 19.625 C-33.91708256 10.11346669 -23.45938305 6.3577514 -12.625 2.6875 C-11.44683716 2.28724609 -11.44683716 2.28724609 -10.24487305 1.87890625 C-9.49633057 1.63398437 -8.74778809 1.3890625 -7.9765625 1.13671875 C-7.30705566 0.91717529 -6.63754883 0.69763184 -5.94775391 0.47143555 C-4 0 -4 0 0 0 Z " fill="#01243D" transform="translate(877,515)"/>
<path d="M0 0 C5.65818178 3.4435816 8.70038651 8.98014845 10.81640625 15.10546875 C11.81640625 21.10546875 11.81640625 21.10546875 11.81640625 34.10546875 C-4.35359375 34.10546875 -20.52359375 34.10546875 -37.18359375 34.10546875 C-35.98460736 22.11560484 -33.3177993 9.85764908 -23.57421875 1.76953125 C-16.55943173 -3.126929 -7.78746737 -3.35097081 0 0 Z " fill="#01243C" transform="translate(537.18359375,467.89453125)"/>
<path d="M0 0 C0.33 0 0.66 0 1 0 C1 2.97 1 5.94 1 9 C-24.08 9 -49.16 9 -75 9 C-75 13.29 -75 17.58 -75 22 C-75.33 22 -75.66 22 -76 22 C-76.19390729 19.68802845 -76.37996367 17.3753971 -76.5625 15.0625 C-76.71912109 13.13083984 -76.71912109 13.13083984 -76.87890625 11.16015625 C-76.91886719 10.11730469 -76.95882813 9.07445312 -77 8 C-75.32664004 6.32664004 -73.28612091 6.88037105 -71.05252075 6.87557983 C-70.3454599 6.87917511 -69.63839905 6.88277039 -68.90991211 6.88647461 C-67.79778603 6.88625557 -67.79778603 6.88625557 -66.66319275 6.8860321 C-64.20121379 6.88673135 -61.73930957 6.89452426 -59.27734375 6.90234375 C-57.57483461 6.90420789 -55.87232493 6.90563181 -54.16981506 6.90663147 C-49.68006927 6.91045698 -45.19035562 6.92028753 -40.70062256 6.93133545 C-36.12268509 6.94154887 -31.54474244 6.94612894 -26.96679688 6.95117188 C-17.97785043 6.96190978 -8.98892788 6.97898659 0 7 C0 4.69 0 2.38 0 0 Z " fill="#CFD3D4" transform="translate(575,504)"/>
<path d="M0 0 C2.475 0.495 2.475 0.495 5 1 C4.01 1.33 3.02 1.66 2 2 C2 25.43 2 48.86 2 73 C1.67 73 1.34 73 1 73 C0.25133646 68.33449792 -0.12259115 63.8699906 -0.11352539 59.14672852 C-0.11367142 58.50197067 -0.11381744 57.85721283 -0.1139679 57.19291687 C-0.11327817 55.08821093 -0.10553042 52.98359649 -0.09765625 50.87890625 C-0.09578872 49.40917509 -0.0943664 47.93944331 -0.09336853 46.4697113 C-0.0895697 42.62120819 -0.07976221 38.77274344 -0.06866455 34.92425537 C-0.0583935 30.9892224 -0.05385876 27.05418317 -0.04882812 23.11914062 C-0.03813732 15.41274302 -0.02109292 7.70637691 0 0 Z " fill="#313440" transform="translate(130,426)"/>
<path d="M0 0 C20.46 0 40.92 0 62 0 C62 2.31 62 4.62 62 7 C61.67 7 61.34 7 61 7 C61 5.02 61 3.04 61 1 C60.67 2.65 60.34 4.3 60 6 C59.505 4.515 59.505 4.515 59 3 C40.19 3 21.38 3 2 3 C1.67 4.65 1.34 6.3 1 8 C0.67 8 0.34 8 0 8 C0 5.36 0 2.72 0 0 Z " fill="#CACBC9" transform="translate(333,418)"/>
<path d="M0 0 C18.81 0 37.62 0 57 0 C56.34 1.32 55.68 2.64 55 4 C55 3.34 55 2.68 55 2 C37.51 2 20.02 2 2 2 C2 2.99 2 3.98 2 5 C1.34 5 0.68 5 0 5 C0 3.35 0 1.7 0 0 Z " fill="#FEFCF9" transform="translate(577,460)"/>
<path d="M0 0 C0 0.66 0 1.32 0 2 C-2.31 2.66 -4.62 3.32 -7 4 C-7 5.32 -7 6.64 -7 8 C-6.34 8.33 -5.68 8.66 -5 9 C-6.65 9 -8.3 9 -10 9 C-10 6.69 -10 4.38 -10 2 C-8.7090864 1.66376204 -7.41723903 1.33110751 -6.125 1 C-5.40570312 0.814375 -4.68640625 0.62875 -3.9453125 0.4375 C-2 0 -2 0 0 0 Z " fill="#EDEDEB" transform="translate(723,464)"/>
<path d="M0 0 C1 2 1 2 0.22265625 4.3828125 C-0.16019531 5.28773438 -0.54304687 6.19265625 -0.9375 7.125 C-1.31777344 8.03507812 -1.69804687 8.94515625 -2.08984375 9.8828125 C-2.54037109 10.93082031 -2.54037109 10.93082031 -3 12 C-3.33 11.01 -3.66 10.02 -4 9 C-4.99 10.485 -4.99 10.485 -6 12 C-6.66 11.67 -7.32 11.34 -8 11 C-5.36 7.37 -2.72 3.74 0 0 Z " fill="#ECDC73" transform="translate(242,498)"/>
<path d="M0 0 C1.98 0.495 1.98 0.495 4 1 C3.625 3.9375 3.625 3.9375 3 7 C2.01 7.495 2.01 7.495 1 8 C0.26919734 6.02253397 -0.39421747 4.01927511 -1 2 C-0.67 1.34 -0.34 0.68 0 0 Z " fill="#0A2034" transform="translate(419,536)"/>
<path d="M0 0 C0.66 0.33 1.32 0.66 2 1 C1.49357808 5.35522853 0.61588503 8.44239635 -2 12 C-2.66 12 -3.32 12 -4 12 C-2.66666667 8 -1.33333333 4 0 0 Z " fill="#0D2237" transform="translate(468,456)"/>
<path d="M0 0 C0.99 0.33 1.98 0.66 3 1 C0.03 3.64 -2.94 6.28 -6 9 C-6.66 8.67 -7.32 8.34 -8 8 C-5.36 5.36 -2.72 2.72 0 0 Z " fill="#071639" transform="translate(201,567)"/>
<path d="M0 0 C0 0.66 0 1.32 0 2 C-6.0546875 2.1953125 -6.0546875 2.1953125 -8 2 C-8.66 1.34 -9.32 0.68 -10 0 C-6.33694766 -0.74926071 -3.57644848 -1.2380014 0 0 Z " fill="#EBEAE7" transform="translate(524,458)"/>
</svg>
